/* XPM */
static char *closeI[] = {
/* columns rows colors chars-per-pixel */
"24 52 72 1",
"  c #15273f",
". c #15393f",
"X c #2a3c7f",
"o c #304248",
"O c #2a4e7f",
"+ c #2a617f",
"@ c #512d1b",
"# c #513f1b",
"$ c #6d3624",
"% c #5b364e",
"& c #763f58",
"* c #6d4824",
"= c #6d5b24",
"- c #645158",
"; c #7f5b61",
": c #3f51bf",
"> c #3f64bf",
", c #3f76bf",
"< c #454588",
"1 c #455888",
"2 c #456a88",
"3 c #617391",
"4 c #7c7c9a",
"5 c #5b6dc8",
"6 c #5b7fc8",
"7 c #7c8e9a",
"8 c #7688d1",
"9 c #883f2d",
"0 c #88512d",
"q c #88642d",
"w c #88762d",
"e c #a34836",
"r c #a35b36",
"t c #a36d36",
"y c #a37f36",
"u c #bf643f",
"i c #bf763f",
"p c #914861",
"a c #827064",
"s c #9a646a",
"d c #9d796d",
"f c #ad516a",
"g c #b66d73",
"h c #d1767c",
"j c #856191",
"k c #a37f9d",
"l c #bf883f",
"z c #bfbf3f",
"x c #828264",
"c c #9d8b6d",
"v c #b98276",
"b c #b99476",
"n c #b9a676",
"m c #d48b7f",
"M c #d49d7f",
"N c #d4b07f",
"B c #9797a3",
"V c #ad9aa6",
"C c #bf88a6",
"Z c #9191da",
"A c #91a3da",
"S c #da91b0",
"D c #c8a3b0",
"F c #cebcb6",
"G c #e3adb9",
"H c #e9c5bf",
"J c #e9d7bf",
"K c #e9e9bf",
"L c #e3e3f5",
"P c #e3f5f5",
"I c #f5e3f5",
"U c white",
/* pixels */
",,,6+,O6O,+5,+5+>+2>+>,O",
",>,+5+12O121O121O11+1OOO",
">,>+AUPUUIPUUUUULUUUUU3<",
">,OAUVdDddkddvkddsdsdsP4",
">,OUVHMGbMmDiCMviCuvrd;U",
">,OUVMHGbMGvmbmvMgmtgd$U",
">,OUkNGbDbvMvvmvvdvgtg#U",
">,OUdGMDJUdvvigddUGtgd$U",
">,OUdGMvUUU0vvvsUUJ0vg#U",
">,OUdmGbdUUUrddUUI0th0;U",
">,OUdmbSvcUUJdUUI0tgrg-U",
">,OUdmvMvCqUUUIKsrvurs*U",
">,>UqmvmvCtBUUU0dhrrvr&U",
">,>UqhbmvvkUKUUU0gtug0&U",
">,>U0mvvvbUUI=UUJv0hr0;U",
">,,U0hvbdUUItdvUUI0trf#U",
",>,U0hvvUUJdvtmdUIKers*U",
",>,U0giCNIdvigvtvINres$U",
",,,U9vugdvvrmvrhqgteh0@U",
",,,U9grvrvgrvrhtgrreg9*U",
",,,U;9srs0v0srsrse00e;;U",
",,,AI*%*&*;#p#*&*$;$*jL4",
",>,67UUIUUIUUUIUUIUUIIAO",
">,,>1152<251111511115O<>",
">O>OO>OX>O1>XO>OO>XO>X1:",
"O1 11O1oX11.11X1oO11Xo1O",
",,,6+,O6O,+5,+5+>+2>+>,O",
",>,+5+12O121O121O11+1OOO",
">,>+Azzzzzzzzzzzzzzzzz81",
">,OAzFcbdDwkbdbdwCqbsczA",
">,OzDNFNMMbMMblClMtmvqaz",
">,OzbHNFMNbMbmMyGtMtvv=z",
">,OzbHnMbFySyMvbbtvbid*z",
">,OzbMFbJzbvbibvqzHvtdqz",
">,OzbMbFzzzvyvvczzztvtaz",
">,OzbbMbbzzzvcdzzztvtv=z",
">,OzbbmbMczzzczzzqvubraz",
">,OzbvMbMtVzzzzztvtviqsz",
">,>zvyGtMbbdzzzcqmtivqsz",
">,>zvymbMbczzzzzditviqsz",
">,>zvymbvbzzzxzzzvttmq0z",
">,,zvtmbczzzbtczzzvttv*z",
",>,zdivyzzzDtvlczzzrvt*z",
",>,zqmtvJzvymvldtzHtuq*z",
",,,z0mtbvtbmtvltvtvut00z",
",,,z0vivtvtvivtivtrtrt;z",
",,,zd0tdtvqv0tvqrv0tr=;z",
",,,Aza0=d*qaq*d=qs=0=azA",
",>,67zzzzzzzzzzzzzzzzzZO",
">,,>1152<251111511115O<>",
">O>OO>OX>O1>XO>OO>XO>X1:",
"O1 11O1oX11.11X1oO11Xo1O"
};
