/* XPM */
static char *rolldownI[] = {
/* columns rows colors chars-per-pixel */
"26 52 50 1",
"  c #15393f",
". c #303048",
"X c #2a3c7f",
"o c #304248",
"O c #365b4e",
"+ c #2a4e7f",
"@ c #2a617f",
"# c #4b4b51",
"$ c #516458",
"% c #5b7f61",
"& c #67675b",
"* c #3f64bf",
"= c #3f76bf",
"- c #454588",
"; c #455888",
": c #456a88",
"> c #457c88",
", c #616191",
"< c #617391",
"1 c #7c7c9a",
"2 c #5b6dc8",
"3 c #5b7fc8",
"4 c #7676d1",
"5 c #708264",
"6 c #799d6d",
"7 c #3f88bf",
"8 c #618591",
"9 c #7c8e9a",
"0 c #7fa39d",
"q c #5b91c8",
"w c #7688d1",
"e c #769ad1",
"r c #76add1",
"t c #8e7c9a",
"y c #bfad3f",
"u c #bfbf3f",
"i c #9797a3",
"p c #9aada6",
"a c #b3b3ad",
"s c #9191da",
"d c #91a3da",
"f c #91b6da",
"g c #adade3",
"h c #adbfe3",
"j c #bcceb6",
"k c #c8daec",
"l c #c8ecec",
"z c #e3e3f5",
"x c #e3f5f5",
"c c white",
/* pixels */
"=*=:=+3=@2=@3*@3=+3=@==3==",
"*@2O*:;:;@;;3o3+:;:*@*==3@",
"*flxxxxxxxlxxxxxxlxw@*=+=*",
"exdd<d<we<w384:w3:wk8*=+*=",
"xdhhhddeddedweeww3:,x*=+*=",
"xdhhhddddeddedwe3w:.c*=+**",
"xdfghded9wdweww>ww2oc*=+*=",
"xegdfds8eccc3w3w;w3oc*=+*=",
"xwfdddw9wccc33w32<3oc*=+*=",
"xwdfwde1eccc23333<2oc*=+*=",
"xweddesccccccc@w*w:;c*=+*=",
"x3ddwed<ccccc33332:;c*@**=",
"x3dwed<ewccc33333:2oc*=*+=",
"x3wdew9we3c3q33:332ox*=*@*",
"x3wew9s8w9wq<3372q;;x*=*@*",
"x33w9ccccccccccc=3;+c*==*=",
"x*ew<ccccccccccc=3+;x=*==*",
"x*w38ccccccccccc=*:Xc=*===",
"x*3<3w18w<<e3:3==2@-x====*",
"x*:23w<3w:w3:=3=2=+ox==*==",
"l2;@4:2:4:3;=;3+:*+;c=====",
"rz+-o;;;o;;o+-; ;X:ze=====",
"=dcxxxxxxxlclxxxxxld+===3*",
"*=;3+33+3+32@2@23+3*:*==*=",
"*++*+*++*+2++*+*++*++3+*+*",
"+- ;;+;oX;+o;+;Xo;+;+o;X;;",
"=*=:=+3=@2=@3*@3=+3=@==3==",
"*@2O*:;:;@;;3o3+:;:*@*==3@",
"*fuuuuuuuuuuuuuuuuye=+=*=+",
"eupg6d9999w99818w$eud*@*=*",
"uhaphph9ph9pd09d99<<u*=+*=",
"udjahph0ih9pdpd98d$,u*=+**",
"u9kpafipd9p9d999d89#u*=+*=",
"u9hph9ifiuuu8d<99e$<u*=+*=",
"u9hpdp9ifuuu<d981e%1u**@**",
"u9hi0h999uuue188s88&u**@**",
"u9h9pd9uuuuuuu8w818<u**@**",
"u9fi9h8iuuuuu39839<$u*=*+=",
"u9d90g909uuuw89e<8<<u*=*+=",
"u9d90if999ud889e8<8<u*=*@*",
"u8d99if1p891e88e835<u*=*=+",
"u8s09uuuuuuuuuuu38<$u*==*=",
"u<0s0uuuuuuuuuuu38<$u=*==*",
"u<d89uuuuuuuuuuu>w%,u=*===",
"u<e98t9%d5d&r<0388<ou====*",
"u<35e19899<f<888w:%;u===*7",
"u<<8<1818<8&e$8<:<:&u=====",
"ru,$$<&;$$,$<$:#$<$uf=*7*3",
"=duuuuuuuuuuuuuuuuue2====+",
"*=;3+33+3+32@2@23+3*:*==*=",
"*++*+*++*+2++*+*++*++3+*+*",
"+- ;;+;oX;+o;+;Xo;+;+o;X;;"
};
