/* XPM */
static char *rollupI[] = {
/* columns rows colors chars-per-pixel */
"26 52 50 1",
"  c #15393f",
". c #303048",
"X c #2a3c7f",
"o c #304248",
"O c #365b4e",
"+ c #2a4e7f",
"@ c #2a617f",
"# c #4b4b51",
"$ c #516458",
"% c #5b7f61",
"& c #645158",
"* c #67675b",
"= c #3f64bf",
"- c #3f76bf",
"; c #454588",
": c #455888",
"> c #456a88",
", c #457c88",
"< c #616191",
"1 c #617391",
"2 c #7c7c9a",
"3 c #5b6dc8",
"4 c #5b7fc8",
"5 c #7676d1",
"6 c #3f88bf",
"7 c #618591",
"8 c #649a94",
"9 c #7c8e9a",
"0 c #7fa39d",
"q c #5b91c8",
"w c #7688d1",
"e c #769ad1",
"r c #76add1",
"t c #bfad3f",
"y c #bfbf3f",
"u c #9797a3",
"i c #9aada6",
"p c #b3b3ad",
"a c #9191da",
"s c #91a3da",
"d c #91b6da",
"f c #adade3",
"g c #adbfe3",
"h c #bcceb6",
"j c #c8c8ec",
"k c #c8daec",
"l c #c8ecec",
"z c #e3e3f5",
"x c #e3f5f5",
"c c white",
/* pixels */
"-=->-+4-@3-@4=@4-+4-@--4--",
"=@3O=>:>:@::4o4+>:>=@=--4@",
"=dlxxxxxxxlxxxxxxlxw@=-+-=",
"exss1s1we1w475>w4>wk7=-+=-",
"xsgggssessesweeww4><x=-+=-",
"xsgggssssesseswe4w>.c=-+==",
"xsdfgses9wswewe14w3oc=-+=-",
"xefsdccccccccccc3>woc=-+=-",
"xwdssccccccccccc4>5oc=-+=-",
"xwsdwccccccccccc4>3<x+-=+-",
"xwessea7w4ww44>434><x=-+=-",
"x4sswse1wec3qw3@w-woc=-+=-",
"x4swea7w4ccc4444>43oc=-=+-",
"x4wsew1eccccc44-44::c=-+-=",
"x4wew94ccccccc4-44>+c=-=@=",
"x44wea,wwccc4q4-4>=oc=--=-",
"x=eww7wwqccc-wq-4+4 c=--=-",
"x=w4e1ew4ccc-e-4->=.x-=---",
"x=414w41w>w44@44--:Xc----=",
"x=>34w14w>w4>-4-3-+ox--=--",
"l3:@5>3>5>4:-:4+>=+:c-----",
"rz+;o:::o::o+;: :X>ze-----",
"-scxxxxxxxlclxxxxxls+---4=",
"=-:4+44+4+43@3@34+4=>=--=-",
"=++=+=++=+3++=+=++=++4+=+=",
"+; ::+:oX:+o:+:Xo:+:+o:X::",
"-=->-+4-@3-@4=@4-+4-@--4--",
"=@3O=>:>:@::4o4+>:>=@=--4@",
"=dyyyyyyyyyyyyyyyyte-+-=-+",
"eyg999s991s%s19w712ye=@=-=",
"ygijidudud9ss0a8a712y=-+=-",
"yshgpdududusd9s9e19oy=-=+=",
"y9gjidu0sue9s9s71s1$y==@=-",
"y9gguyyyyyyyyyyy472$y==-+=",
"ys0fiyyyyyyyyyyy4111y==@==",
"y9sg9yyyyyyyyyyy491$y=-=+-",
"yeus0sue92e7w7w71e1$y==-+=",
"y7fs09s9a7ye1e17w711y=-+=-",
"y7s9s9s9wyyye1e>7w7#y=-==@",
"y7f99s7syyyyye>e174$y=-=@=",
"y7s9s99yyyyyyy47e>7#y=-=-=",
"y1e9si7a7yyye747e>1Oy=--=-",
"y1e9w0a7syyyq7w7q1>$y=--=-",
"y>a7e9s7syyye77w,4$>y=---=",
"y>w9e1919e277e7174>$y-=6=-",
"y>w17a71997e17e1,wO$y=6=--",
"y111719119171>7>1:1%y=6=6-",
"ry1#*1$$1$2O&,#$1#7ys-----",
"-syyyyyyyyyyyyyyyyye3----+",
"=-:4+44+4+43@3@34+4=>=--=-",
"=++=+=++=+3++=+=++=++4+=+=",
"+; ::+:oX:+o:+:Xo:+:+o:X::"
};
